<?xml version="1.0" encoding="UTF-8" standalone="no"?>
<!-- Created with matplotlib (https://matplotlib.org/) -->

<svg
   height="451.29974pt"
   version="1.1"
   viewBox="0 0 798.7644 451.29974"
   width="798.7644pt"
   id="svg423"
   sodipodi:docname="AlphaZero_results.svg"
   inkscape:version="1.1.2 (0a00cf5339, 2022-02-04)"
   xmlns:inkscape="http://www.inkscape.org/namespaces/inkscape"
   xmlns:sodipodi="http://sodipodi.sourceforge.net/DTD/sodipodi-0.dtd"
   xmlns:xlink="http://www.w3.org/1999/xlink"
   xmlns="http://www.w3.org/2000/svg"
   xmlns:svg="http://www.w3.org/2000/svg"
   xmlns:rdf="http://www.w3.org/1999/02/22-rdf-syntax-ns#"
   xmlns:cc="http://creativecommons.org/ns#"
   xmlns:dc="http://purl.org/dc/elements/1.1/">
  <sodipodi:namedview
     id="namedview425"
     pagecolor="#ffffff"
     bordercolor="#666666"
     borderopacity="1.0"
     inkscape:pageshadow="2"
     inkscape:pageopacity="0.0"
     inkscape:pagecheckerboard="0"
     inkscape:document-units="pt"
     showgrid="false"
     fit-margin-top="0"
     fit-margin-left="0"
     fit-margin-right="0"
     fit-margin-bottom="0"
     inkscape:zoom="1.0451389"
     inkscape:cx="369.80731"
     inkscape:cy="287.52159"
     inkscape:window-width="1526"
     inkscape:window-height="836"
     inkscape:window-x="0"
     inkscape:window-y="0"
     inkscape:window-maximized="1"
     inkscape:current-layer="svg423" />
  <metadata
     id="metadata2">
    <rdf:RDF>
      <cc:Work>
        <dc:type
           rdf:resource="http://purl.org/dc/dcmitype/StillImage" />
        <dc:date>2022-08-21T14:09:54.698599</dc:date>
        <dc:format>image/svg+xml</dc:format>
        <dc:creator>
          <cc:Agent>
            <dc:title>Matplotlib v3.3.4, https://matplotlib.org/</dc:title>
          </cc:Agent>
        </dc:creator>
      </cc:Work>
    </rdf:RDF>
  </metadata>
  <defs
     id="defs6">
    <style
       type="text/css"
       id="style4">*{stroke-linecap:butt;stroke-linejoin:round;}</style>
  </defs>
  <g
     id="figure_1">
    <g
       id="patch_1">
      <path
         d="M 0,432 H 720 V 0 H 0 Z"
         style="fill:none"
         id="path8" />
    </g>
    <g
       id="axes_1">
      <g
         id="patch_2">
        <path
           d="M 90,378 H 648 V 51.84 H 90 Z"
           style="fill:#ffffff"
           id="path11" />
      </g>
      <g
         id="patch_3">
        <path
           clip-path="url(#p2278f456a0)"
           d="m 124.875,378 h 69.75 V 266.17371 h -69.75 z"
           style="stroke:#000000;stroke-linejoin:miter"
           id="path14" />
      </g>
      <g
         id="patch_4">
        <path
           clip-path="url(#p2278f456a0)"
           d="m 264.375,378 h 69.75 v 0 z"
           style="stroke:#000000;stroke-linejoin:miter"
           id="path17" />
      </g>
      <g
         id="patch_5">
        <path
           clip-path="url(#p2278f456a0)"
           d="m 403.875,378 h 69.75 V 141.92229 h -69.75 z"
           style="stroke:#000000;stroke-linejoin:miter"
           id="path20" />
      </g>
      <g
         id="patch_6">
        <path
           clip-path="url(#p2278f456a0)"
           d="m 543.375,378 h 69.75 v 0 z"
           style="stroke:#000000;stroke-linejoin:miter"
           id="path23" />
      </g>
      <g
         id="patch_7">
        <path
           clip-path="url(#p2278f456a0)"
           d="m 124.875,266.17371 h 69.75 v -27.95657 h -69.75 z"
           style="fill:#ffffff;stroke:#000000;stroke-linejoin:miter"
           id="path26" />
      </g>
      <g
         id="patch_8">
        <path
           clip-path="url(#p2278f456a0)"
           d="m 264.375,378 h 69.75 v -12.42514 h -69.75 z"
           style="fill:#ffffff;stroke:#000000;stroke-linejoin:miter"
           id="path29" />
      </g>
      <g
         id="patch_9">
        <path
           clip-path="url(#p2278f456a0)"
           d="m 403.875,141.92229 h 69.75 v -37.27543 h -69.75 z"
           style="fill:#ffffff;stroke:#000000;stroke-linejoin:miter"
           id="path32" />
      </g>
      <g
         id="patch_10">
        <path
           clip-path="url(#p2278f456a0)"
           d="m 543.375,378 h 69.75 V 67.371429 h -69.75 z"
           style="fill:#ffffff;stroke:#000000;stroke-linejoin:miter"
           id="path35" />
      </g>
      <g
         id="patch_11">
        <path
           clip-path="url(#p2278f456a0)"
           d="m 124.875,238.21714 h 69.75 V 67.371429 h -69.75 z"
           style="fill:#ff0000;stroke:#000000;stroke-linejoin:miter"
           id="path38" />
      </g>
      <g
         id="patch_12">
        <path
           clip-path="url(#p2278f456a0)"
           d="m 264.375,365.57486 h 69.75 V 67.371429 h -69.75 z"
           style="fill:#ff0000;stroke:#000000;stroke-linejoin:miter"
           id="path41" />
      </g>
      <g
         id="patch_13">
        <path
           clip-path="url(#p2278f456a0)"
           d="m 403.875,104.64686 h 69.75 V 67.371429 h -69.75 z"
           style="fill:#ff0000;stroke:#000000;stroke-linejoin:miter"
           id="path44" />
      </g>
      <g
         id="patch_14">
        <path
           clip-path="url(#p2278f456a0)"
           d="m 543.375,378 h 69.75 v 0 z"
           style="fill:#ff0000;stroke:#000000;stroke-linejoin:miter"
           id="path47" />
      </g>
      <g
         id="matplotlib.axis_1">
        <g
           id="xtick_1">
          <g
             id="line2d_1">
            <defs
               id="defs51">
              <path
                 d="M 0,0 V 3.5"
                 id="m8bc7422203"
                 style="stroke:#000000;stroke-width:0.8" />
            </defs>
            <g
               id="g55">
              <use
                 style="stroke:#000000;stroke-width:0.8"
                 x="159.75"
                 xlink:href="#m8bc7422203"
                 y="378"
                 id="use53"
                 width="100%"
                 height="100%" />
            </g>
          </g>
          <g
             id="text_1">
            <!-- random -->
            <g
               transform="matrix(0.22,0,0,-0.22,117.08719,401.71656)"
               id="g78">
              <defs
                 id="defs64">
                <path
                   d="m 41.109375,46.296875 q -1.515625,0.875 -3.296875,1.28125 Q 36.03125,48 33.890625,48 26.265625,48 22.1875,43.046875 18.109375,38.09375 18.109375,28.8125 V 0 h -9.03125 v 54.6875 h 9.03125 v -8.5 q 2.84375,4.984375 7.375,7.390625 Q 30.03125,56 36.53125,56 q 0.921875,0 2.046875,-0.125 1.125,-0.109375 2.484375,-0.359375 z"
                   id="DejaVuSans-114" />
                <path
                   d="m 34.28125,27.484375 q -10.890625,0 -15.09375,-2.484375 -4.203125,-2.484375 -4.203125,-8.5 0,-4.78125 3.15625,-7.59375 3.15625,-2.796875 8.5625,-2.796875 7.484375,0 12,5.296875 4.515625,5.296875 4.515625,14.078125 v 2 z m 17.921875,3.71875 V 0 H 43.21875 v 8.296875 q -3.078125,-4.96875 -7.671875,-7.34375 -4.59375,-2.375 -11.234375,-2.375 -8.390625,0 -13.359375,4.71875 Q 6,8.015625 6,15.921875 q 0,9.21875 6.171875,13.90625 6.1875,4.6875 18.4375,4.6875 H 43.21875 v 0.890625 q 0,6.203125 -4.078125,9.59375 -4.078125,3.390625 -11.453125,3.390625 -4.6875,0 -9.140625,-1.125 -4.4375,-1.125 -8.53125,-3.375 v 8.3125 q 4.921875,1.90625 9.5625,2.84375 Q 24.21875,56 28.609375,56 q 11.875,0 17.734375,-6.15625 5.859375,-6.140625 5.859375,-18.640625 z"
                   id="DejaVuSans-97" />
                <path
                   d="M 54.890625,33.015625 V 0 H 45.90625 v 32.71875 q 0,7.765625 -3.03125,11.609375 -3.03125,3.859375 -9.078125,3.859375 -7.28125,0 -11.484375,-4.640625 -4.203125,-4.625 -4.203125,-12.640625 V 0 h -9.03125 v 54.6875 h 9.03125 v -8.5 q 3.234375,4.9375 7.59375,7.375 4.375,2.4375 10.09375,2.4375 9.421875,0 14.25,-5.828125 4.84375,-5.828125 4.84375,-17.15625 z"
                   id="DejaVuSans-110" />
                <path
                   d="m 45.40625,46.390625 v 29.59375 h 8.984375 V 0 H 45.40625 v 8.203125 q -2.828125,-4.875 -7.15625,-7.25 -4.3125,-2.375 -10.375,-2.375 -9.90625,0 -16.140625,7.90625 -6.21875,7.921875 -6.21875,20.8125 0,12.890625 6.21875,20.796875 Q 17.96875,56 27.875,56 q 6.0625,0 10.375,-2.375 4.328125,-2.359375 7.15625,-7.234375 z M 14.796875,27.296875 q 0,-9.90625 4.078125,-15.546875 4.078125,-5.640625 11.203125,-5.640625 7.125,0 11.21875,5.640625 4.109375,5.640625 4.109375,15.546875 0,9.90625 -4.109375,15.546875 -4.09375,5.640625 -11.21875,5.640625 -7.125,0 -11.203125,-5.640625 -4.078125,-5.640625 -4.078125,-15.546875 z"
                   id="DejaVuSans-100" />
                <path
                   d="m 30.609375,48.390625 q -7.21875,0 -11.421875,-5.640625 -4.203125,-5.640625 -4.203125,-15.453125 0,-9.8125 4.171875,-15.453125 4.1875,-5.640625 11.453125,-5.640625 7.1875,0 11.375,5.65625 4.203125,5.671875 4.203125,15.4375 0,9.71875 -4.203125,15.40625 -4.1875,5.6875 -11.375,5.6875 z m 0,7.609375 q 11.71875,0 18.40625,-7.625 6.703125,-7.609375 6.703125,-21.078125 0,-13.421875 -6.703125,-21.078125 -6.6875,-7.640625 -18.40625,-7.640625 -11.765625,0 -18.4375,7.640625 -6.65625,7.65625 -6.65625,21.078125 0,13.46875 6.65625,21.078125 Q 18.84375,56 30.609375,56 Z"
                   id="DejaVuSans-111" />
                <path
                   d="M 52,44.1875 Q 55.375,50.25 60.0625,53.125 64.75,56 71.09375,56 q 8.546875,0 13.1875,-5.984375 4.640625,-5.96875 4.640625,-17 V 0 h -9.03125 v 32.71875 q 0,7.859375 -2.796875,11.65625 -2.78125,3.8125 -8.484375,3.8125 -6.984375,0 -11.046875,-4.640625 -4.046875,-4.625 -4.046875,-12.640625 V 0 h -9.03125 v 32.71875 q 0,7.90625 -2.78125,11.6875 -2.78125,3.78125 -8.59375,3.78125 -6.890625,0 -10.953125,-4.65625 -4.046875,-4.65625 -4.046875,-12.625 V 0 h -9.03125 v 54.6875 h 9.03125 v -8.5 q 3.078125,5.03125 7.375,7.421875 Q 29.78125,56 35.6875,56 41.65625,56 45.828125,52.96875 50,49.953125 52,44.1875 Z"
                   id="DejaVuSans-109" />
              </defs>
              <use
                 xlink:href="#DejaVuSans-114"
                 id="use66"
                 x="0"
                 y="0"
                 width="100%"
                 height="100%" />
              <use
                 x="41.113281"
                 xlink:href="#DejaVuSans-97"
                 id="use68"
                 y="0"
                 width="100%"
                 height="100%" />
              <use
                 x="102.39258"
                 xlink:href="#DejaVuSans-110"
                 id="use70"
                 y="0"
                 width="100%"
                 height="100%" />
              <use
                 x="165.77148"
                 xlink:href="#DejaVuSans-100"
                 id="use72"
                 y="0"
                 width="100%"
                 height="100%" />
              <use
                 x="229.24805"
                 xlink:href="#DejaVuSans-111"
                 id="use74"
                 y="0"
                 width="100%"
                 height="100%" />
              <use
                 x="290.42969"
                 xlink:href="#DejaVuSans-109"
                 id="use76"
                 y="0"
                 width="100%"
                 height="100%" />
            </g>
            <!-- vs -->
            <g
               transform="matrix(0.22,0,0,-0.22,147.50906,426.35175)"
               id="g88">
              <defs
                 id="defs82">
                <path
                   d="M 2.984375,54.6875 H 12.5 L 29.59375,8.796875 46.6875,54.6875 h 9.515625 L 35.6875,0 H 23.484375 Z"
                   id="DejaVuSans-118" />
                <path
                   d="m 44.28125,53.078125 v -8.5 Q 40.484375,46.53125 36.375,47.5 q -4.09375,0.984375 -8.5,0.984375 -6.6875,0 -10.03125,-2.046875 Q 14.5,44.390625 14.5,40.28125 q 0,-3.125 2.390625,-4.90625 2.390625,-1.78125 9.625,-3.390625 l 3.078125,-0.6875 Q 39.15625,29.25 43.1875,25.515625 47.21875,21.78125 47.21875,15.09375 q 0,-7.625 -6.03125,-12.078125 -6.03125,-4.4375 -16.578125,-4.4375 -4.390625,0 -9.15625,0.859375 Q 10.6875,0.296875 5.421875,2 v 9.28125 q 4.984375,-2.59375 9.8125,-3.890625 4.828125,-1.28125 9.578125,-1.28125 6.34375,0 9.75,2.171875 3.421875,2.171875 3.421875,6.125 0,3.65625 -2.46875,5.609375 -2.453125,1.953125 -10.8125,3.765625 l -3.125,0.734375 q -8.34375,1.75 -12.0625,5.390625 -3.703125,3.640625 -3.703125,9.984375 0,7.71875 5.46875,11.90625 Q 16.75,56 26.8125,56 q 4.96875,0 9.359375,-0.734375 4.40625,-0.71875 8.109375,-2.1875 z"
                   id="DejaVuSans-115" />
              </defs>
              <use
                 xlink:href="#DejaVuSans-118"
                 id="use84"
                 x="0"
                 y="0"
                 width="100%"
                 height="100%" />
              <use
                 x="59.179688"
                 xlink:href="#DejaVuSans-115"
                 id="use86"
                 y="0"
                 width="100%"
                 height="100%" />
            </g>
            <!-- random -->
            <g
               transform="matrix(0.22,0,0,-0.22,117.08719,450.98694)"
               id="g102">
              <use
                 xlink:href="#DejaVuSans-114"
                 id="use90"
                 x="0"
                 y="0"
                 width="100%"
                 height="100%" />
              <use
                 x="41.113281"
                 xlink:href="#DejaVuSans-97"
                 id="use92"
                 y="0"
                 width="100%"
                 height="100%" />
              <use
                 x="102.39258"
                 xlink:href="#DejaVuSans-110"
                 id="use94"
                 y="0"
                 width="100%"
                 height="100%" />
              <use
                 x="165.77148"
                 xlink:href="#DejaVuSans-100"
                 id="use96"
                 y="0"
                 width="100%"
                 height="100%" />
              <use
                 x="229.24805"
                 xlink:href="#DejaVuSans-111"
                 id="use98"
                 y="0"
                 width="100%"
                 height="100%" />
              <use
                 x="290.42969"
                 xlink:href="#DejaVuSans-109"
                 id="use100"
                 y="0"
                 width="100%"
                 height="100%" />
            </g>
          </g>
        </g>
        <g
           id="xtick_2">
          <g
             id="line2d_2">
            <g
               id="g108">
              <use
                 style="stroke:#000000;stroke-width:0.8"
                 x="299.25"
                 xlink:href="#m8bc7422203"
                 y="378"
                 id="use106"
                 width="100%"
                 height="100%" />
            </g>
          </g>
          <g
             id="text_2">
            <!-- AI X -->
            <g
               transform="matrix(0.22,0,0,-0.22,277.44937,401.71656)"
               id="g125">
              <defs
                 id="defs115">
                <path
                   d="M 34.1875,63.1875 20.796875,26.90625 h 26.8125 z m -5.578125,9.71875 h 11.1875 L 67.578125,0 h -10.25 L 50.6875,18.703125 H 17.828125 L 11.1875,0 H 0.78125 Z"
                   id="DejaVuSans-65" />
                <path
                   d="m 9.8125,72.90625 h 9.859375 V 0 H 9.8125 Z"
                   id="DejaVuSans-73" />
                <path
                   id="DejaVuSans-32"
                   d="" />
                <path
                   d="m 6.296875,72.90625 h 10.59375 L 35.015625,45.796875 53.21875,72.90625 H 63.8125 L 40.375,37.890625 65.375,0 H 54.78125 l -20.5,31 L 13.625,0 H 2.984375 L 29,38.921875 Z"
                   id="DejaVuSans-88" />
              </defs>
              <use
                 xlink:href="#DejaVuSans-65"
                 id="use117"
                 x="0"
                 y="0"
                 width="100%"
                 height="100%" />
              <use
                 x="68.408203"
                 xlink:href="#DejaVuSans-73"
                 id="use119"
                 y="0"
                 width="100%"
                 height="100%" />
              <use
                 x="97.900391"
                 xlink:href="#DejaVuSans-32"
                 id="use121"
                 y="0"
                 width="100%"
                 height="100%" />
              <use
                 x="129.6875"
                 xlink:href="#DejaVuSans-88"
                 id="use123"
                 y="0"
                 width="100%"
                 height="100%" />
            </g>
            <!-- vs -->
            <g
               transform="matrix(0.22,0,0,-0.22,287.00906,426.35175)"
               id="g131">
              <use
                 xlink:href="#DejaVuSans-118"
                 id="use127"
                 x="0"
                 y="0"
                 width="100%"
                 height="100%" />
              <use
                 x="59.179688"
                 xlink:href="#DejaVuSans-115"
                 id="use129"
                 y="0"
                 width="100%"
                 height="100%" />
            </g>
            <!-- random O -->
            <g
               transform="matrix(0.22,0,0,-0.22,244.43219,450.98694)"
               id="g152">
              <defs
                 id="defs134">
                <path
                   d="m 39.40625,66.21875 q -10.75,0 -17.078125,-8.015625 -6.3125,-8 -6.3125,-21.828125 0,-13.765625 6.3125,-21.78125 6.328125,-8 17.078125,-8 10.734375,0 17.015625,8 6.28125,8.015625 6.28125,21.78125 0,13.828125 -6.28125,21.828125 -6.28125,8.015625 -17.015625,8.015625 z m 0,8 q 15.328125,0 24.5,-10.28125 9.1875,-10.28125 9.1875,-27.5625 0,-17.234375 -9.1875,-27.515625 -9.171875,-10.28125 -24.5,-10.28125 -15.375,0 -24.59375,10.25 Q 5.609375,19.09375 5.609375,36.375 q 0,17.28125 9.203125,27.5625 9.21875,10.28125 24.59375,10.28125 z"
                   id="DejaVuSans-79" />
              </defs>
              <use
                 xlink:href="#DejaVuSans-114"
                 id="use136"
                 x="0"
                 y="0"
                 width="100%"
                 height="100%" />
              <use
                 x="41.113281"
                 xlink:href="#DejaVuSans-97"
                 id="use138"
                 y="0"
                 width="100%"
                 height="100%" />
              <use
                 x="102.39258"
                 xlink:href="#DejaVuSans-110"
                 id="use140"
                 y="0"
                 width="100%"
                 height="100%" />
              <use
                 x="165.77148"
                 xlink:href="#DejaVuSans-100"
                 id="use142"
                 y="0"
                 width="100%"
                 height="100%" />
              <use
                 x="229.24805"
                 xlink:href="#DejaVuSans-111"
                 id="use144"
                 y="0"
                 width="100%"
                 height="100%" />
              <use
                 x="290.42969"
                 xlink:href="#DejaVuSans-109"
                 id="use146"
                 y="0"
                 width="100%"
                 height="100%" />
              <use
                 x="387.8418"
                 xlink:href="#DejaVuSans-32"
                 id="use148"
                 y="0"
                 width="100%"
                 height="100%" />
              <use
                 x="419.62891"
                 xlink:href="#DejaVuSans-79"
                 id="use150"
                 y="0"
                 width="100%"
                 height="100%" />
            </g>
          </g>
        </g>
        <g
           id="xtick_3">
          <g
             id="line2d_3">
            <g
               id="g158">
              <use
                 style="stroke:#000000;stroke-width:0.8"
                 x="438.75"
                 xlink:href="#m8bc7422203"
                 y="378"
                 id="use156"
                 width="100%"
                 height="100%" />
            </g>
          </g>
          <g
             id="text_3">
            <!-- random X -->
            <g
               transform="matrix(0.22,0,0,-0.22,385.05625,401.71656)"
               id="g177">
              <use
                 xlink:href="#DejaVuSans-114"
                 id="use161"
                 x="0"
                 y="0"
                 width="100%"
                 height="100%" />
              <use
                 x="41.113281"
                 xlink:href="#DejaVuSans-97"
                 id="use163"
                 y="0"
                 width="100%"
                 height="100%" />
              <use
                 x="102.39258"
                 xlink:href="#DejaVuSans-110"
                 id="use165"
                 y="0"
                 width="100%"
                 height="100%" />
              <use
                 x="165.77148"
                 xlink:href="#DejaVuSans-100"
                 id="use167"
                 y="0"
                 width="100%"
                 height="100%" />
              <use
                 x="229.24805"
                 xlink:href="#DejaVuSans-111"
                 id="use169"
                 y="0"
                 width="100%"
                 height="100%" />
              <use
                 x="290.42969"
                 xlink:href="#DejaVuSans-109"
                 id="use171"
                 y="0"
                 width="100%"
                 height="100%" />
              <use
                 x="387.8418"
                 xlink:href="#DejaVuSans-32"
                 id="use173"
                 y="0"
                 width="100%"
                 height="100%" />
              <use
                 x="419.62891"
                 xlink:href="#DejaVuSans-88"
                 id="use175"
                 y="0"
                 width="100%"
                 height="100%" />
            </g>
            <!-- vs -->
            <g
               transform="matrix(0.22,0,0,-0.22,426.50906,426.35175)"
               id="g183">
              <use
                 xlink:href="#DejaVuSans-118"
                 id="use179"
                 x="0"
                 y="0"
                 width="100%"
                 height="100%" />
              <use
                 x="59.179688"
                 xlink:href="#DejaVuSans-115"
                 id="use181"
                 y="0"
                 width="100%"
                 height="100%" />
            </g>
            <!-- AI O -->
            <g
               transform="matrix(0.22,0,0,-0.22,415.82531,450.98694)"
               id="g193">
              <use
                 xlink:href="#DejaVuSans-65"
                 id="use185"
                 x="0"
                 y="0"
                 width="100%"
                 height="100%" />
              <use
                 x="68.408203"
                 xlink:href="#DejaVuSans-73"
                 id="use187"
                 y="0"
                 width="100%"
                 height="100%" />
              <use
                 x="97.900391"
                 xlink:href="#DejaVuSans-32"
                 id="use189"
                 y="0"
                 width="100%"
                 height="100%" />
              <use
                 x="129.6875"
                 xlink:href="#DejaVuSans-79"
                 id="use191"
                 y="0"
                 width="100%"
                 height="100%" />
            </g>
          </g>
        </g>
        <g
           id="xtick_4">
          <g
             id="line2d_4">
            <g
               id="g199">
              <use
                 style="stroke:#000000;stroke-width:0.8"
                 x="578.25"
                 xlink:href="#m8bc7422203"
                 y="378"
                 id="use197"
                 width="100%"
                 height="100%" />
            </g>
          </g>
          <g
             id="text_4">
            <!-- AI vs AI -->
            <g
               transform="matrix(0.22,0,0,-0.22,537.47781,401.71656)"
               id="g218">
              <use
                 xlink:href="#DejaVuSans-65"
                 id="use202"
                 x="0"
                 y="0"
                 width="100%"
                 height="100%" />
              <use
                 x="68.408203"
                 xlink:href="#DejaVuSans-73"
                 id="use204"
                 y="0"
                 width="100%"
                 height="100%" />
              <use
                 x="97.900391"
                 xlink:href="#DejaVuSans-32"
                 id="use206"
                 y="0"
                 width="100%"
                 height="100%" />
              <use
                 x="129.6875"
                 xlink:href="#DejaVuSans-118"
                 id="use208"
                 y="0"
                 width="100%"
                 height="100%" />
              <use
                 x="188.86719"
                 xlink:href="#DejaVuSans-115"
                 id="use210"
                 y="0"
                 width="100%"
                 height="100%" />
              <use
                 x="240.9668"
                 xlink:href="#DejaVuSans-32"
                 id="use212"
                 y="0"
                 width="100%"
                 height="100%" />
              <use
                 x="272.75391"
                 xlink:href="#DejaVuSans-65"
                 id="use214"
                 y="0"
                 width="100%"
                 height="100%" />
              <use
                 x="341.16211"
                 xlink:href="#DejaVuSans-73"
                 id="use216"
                 y="0"
                 width="100%"
                 height="100%" />
            </g>
          </g>
        </g>
      </g>
      <g
         id="matplotlib.axis_2">
        <g
           id="ytick_1">
          <g
             id="line2d_5">
            <defs
               id="defs224">
              <path
                 d="M 0,0 H -3.5"
                 id="m6b13329e74"
                 style="stroke:#000000;stroke-width:0.8" />
            </defs>
            <g
               id="g228">
              <use
                 style="stroke:#000000;stroke-width:0.8"
                 x="90"
                 xlink:href="#m6b13329e74"
                 y="378"
                 id="use226"
                 width="100%"
                 height="100%" />
            </g>
          </g>
          <g
             id="text_5">
            <!-- 0 -->
            <g
               transform="matrix(0.22,0,0,-0.22,69.0025,386.35828)"
               id="g236">
              <defs
                 id="defs232">
                <path
                   d="m 31.78125,66.40625 q -7.609375,0 -11.453125,-7.5 Q 16.5,51.421875 16.5,36.375 q 0,-14.984375 3.828125,-22.484375 3.84375,-7.5 11.453125,-7.5 7.671875,0 11.5,7.5 3.84375,7.5 3.84375,22.484375 0,15.046875 -3.84375,22.53125 -3.828125,7.5 -11.5,7.5 z m 0,7.8125 q 12.265625,0 18.734375,-9.703125 6.46875,-9.6875 6.46875,-28.140625 0,-18.40625 -6.46875,-28.109375 -6.46875,-9.6875 -18.734375,-9.6875 -12.25,0 -18.71875,9.6875 Q 6.59375,17.96875 6.59375,36.375 q 0,18.453125 6.46875,28.140625 6.46875,9.703125 18.71875,9.703125 z"
                   id="DejaVuSans-48" />
              </defs>
              <use
                 xlink:href="#DejaVuSans-48"
                 id="use234"
                 x="0"
                 y="0"
                 width="100%"
                 height="100%" />
            </g>
          </g>
        </g>
        <g
           id="ytick_2">
          <g
             id="line2d_6">
            <g
               id="g242">
              <use
                 style="stroke:#000000;stroke-width:0.8"
                 x="90"
                 xlink:href="#m6b13329e74"
                 y="315.8743"
                 id="use240"
                 width="100%"
                 height="100%" />
            </g>
          </g>
          <g
             id="text_6">
            <!-- 20 -->
            <g
               transform="matrix(0.22,0,0,-0.22,55.005,324.23257)"
               id="g252">
              <defs
                 id="defs246">
                <path
                   d="M 19.1875,8.296875 H 53.609375 V 0 H 7.328125 v 8.296875 q 5.609375,5.8125 15.296875,15.59375 9.703125,9.796875 12.1875,12.640625 4.734375,5.3125 6.609375,9 1.890625,3.6875 1.890625,7.25 0,5.8125 -4.078125,9.46875 -4.078125,3.671875 -10.625,3.671875 -4.640625,0 -9.796875,-1.609375 -5.140625,-1.609375 -11,-4.890625 v 9.96875 Q 13.765625,71.78125 18.9375,73 q 5.1875,1.21875 9.484375,1.21875 11.328125,0 18.0625,-5.671875 6.734375,-5.65625 6.734375,-15.125 0,-4.5 -1.6875,-8.53125 Q 49.859375,40.875 45.40625,35.40625 44.1875,33.984375 37.640625,27.21875 31.109375,20.453125 19.1875,8.296875 Z"
                   id="DejaVuSans-50" />
              </defs>
              <use
                 xlink:href="#DejaVuSans-50"
                 id="use248"
                 x="0"
                 y="0"
                 width="100%"
                 height="100%" />
              <use
                 x="63.623047"
                 xlink:href="#DejaVuSans-48"
                 id="use250"
                 y="0"
                 width="100%"
                 height="100%" />
            </g>
          </g>
        </g>
        <g
           id="ytick_3">
          <g
             id="line2d_7">
            <g
               id="g258">
              <use
                 style="stroke:#000000;stroke-width:0.8"
                 x="90"
                 xlink:href="#m6b13329e74"
                 y="253.74857"
                 id="use256"
                 width="100%"
                 height="100%" />
            </g>
          </g>
          <g
             id="text_7">
            <!-- 40 -->
            <g
               transform="matrix(0.22,0,0,-0.22,55.005,262.10685)"
               id="g268">
              <defs
                 id="defs262">
                <path
                   d="M 37.796875,64.3125 12.890625,25.390625 h 24.90625 z m -2.59375,8.59375 h 12.40625 V 25.390625 h 10.40625 V 17.1875 H 47.609375 V 0 h -9.8125 V 17.1875 H 4.890625 v 9.515625 z"
                   id="DejaVuSans-52" />
              </defs>
              <use
                 xlink:href="#DejaVuSans-52"
                 id="use264"
                 x="0"
                 y="0"
                 width="100%"
                 height="100%" />
              <use
                 x="63.623047"
                 xlink:href="#DejaVuSans-48"
                 id="use266"
                 y="0"
                 width="100%"
                 height="100%" />
            </g>
          </g>
        </g>
        <g
           id="ytick_4">
          <g
             id="line2d_8">
            <g
               id="g274">
              <use
                 style="stroke:#000000;stroke-width:0.8"
                 x="90"
                 xlink:href="#m6b13329e74"
                 y="191.62286"
                 id="use272"
                 width="100%"
                 height="100%" />
            </g>
          </g>
          <g
             id="text_8">
            <!-- 60 -->
            <g
               transform="matrix(0.22,0,0,-0.22,55.005,199.98114)"
               id="g284">
              <defs
                 id="defs278">
                <path
                   d="m 33.015625,40.375 q -6.640625,0 -10.53125,-4.546875 -3.875,-4.53125 -3.875,-12.4375 0,-7.859375 3.875,-12.4375 3.890625,-4.5625 10.53125,-4.5625 6.640625,0 10.515625,4.5625 3.875,4.578125 3.875,12.4375 0,7.90625 -3.875,12.4375 Q 39.65625,40.375 33.015625,40.375 Z M 52.59375,71.296875 V 62.3125 q -3.71875,1.75 -7.5,2.671875 -3.78125,0.9375 -7.5,0.9375 -9.765625,0 -14.921875,-6.59375 -5.140625,-6.59375 -5.875,-19.921875 2.875,4.25 7.21875,6.515625 4.359375,2.265625 9.578125,2.265625 10.984375,0 17.359375,-6.671875 6.375,-6.65625 6.375,-18.125 0,-11.234375 -6.640625,-18.03125 -6.640625,-6.78125 -17.671875,-6.78125 -12.65625,0 -19.34375,9.6875 -6.6875,9.703125 -6.6875,28.109375 0,17.28125 8.203125,27.5625 8.203125,10.28125 22.015625,10.28125 3.71875,0 7.5,-0.734375 3.78125,-0.734375 7.890625,-2.1875 z"
                   id="DejaVuSans-54" />
              </defs>
              <use
                 xlink:href="#DejaVuSans-54"
                 id="use280"
                 x="0"
                 y="0"
                 width="100%"
                 height="100%" />
              <use
                 x="63.623047"
                 xlink:href="#DejaVuSans-48"
                 id="use282"
                 y="0"
                 width="100%"
                 height="100%" />
            </g>
          </g>
        </g>
        <g
           id="ytick_5">
          <g
             id="line2d_9">
            <g
               id="g290">
              <use
                 style="stroke:#000000;stroke-width:0.8"
                 x="90"
                 xlink:href="#m6b13329e74"
                 y="129.49715"
                 id="use288"
                 width="100%"
                 height="100%" />
            </g>
          </g>
          <g
             id="text_9">
            <!-- 80 -->
            <g
               transform="matrix(0.22,0,0,-0.22,55.005,137.85542)"
               id="g300">
              <defs
                 id="defs294">
                <path
                   d="m 31.78125,34.625 q -7.03125,0 -11.0625,-3.765625 -4.015625,-3.765625 -4.015625,-10.34375 0,-6.59375 4.015625,-10.359375 4.03125,-3.765625 11.0625,-3.765625 7.03125,0 11.078125,3.78125 4.0625,3.796875 4.0625,10.34375 0,6.578125 -4.03125,10.34375 Q 38.875,34.625 31.78125,34.625 Z m -9.859375,4.1875 Q 15.578125,40.375 12.03125,44.71875 8.5,49.078125 8.5,55.328125 q 0,8.734375 6.21875,13.8125 6.234375,5.078125 17.0625,5.078125 10.890625,0 17.09375,-5.078125 6.203125,-5.078125 6.203125,-13.8125 0,-6.25 -3.546875,-10.609375 Q 48,40.375 41.703125,38.8125 q 7.125,-1.65625 11.09375,-6.5 3.984375,-4.828125 3.984375,-11.796875 0,-10.609375 -6.46875,-16.28125 -6.46875,-5.65625 -18.53125,-5.65625 -12.046875,0 -18.53125,5.65625 -6.46875,5.671875 -6.46875,16.28125 0,6.96875 4,11.796875 4.015625,4.84375 11.140625,6.5 z M 18.3125,54.390625 q 0,-5.65625 3.53125,-8.828125 3.546875,-3.171875 9.9375,-3.171875 6.359375,0 9.9375,3.171875 3.59375,3.171875 3.59375,8.828125 0,5.671875 -3.59375,8.84375 -3.578125,3.171875 -9.9375,3.171875 -6.390625,0 -9.9375,-3.171875 Q 18.3125,60.0625 18.3125,54.390625 Z"
                   id="DejaVuSans-56" />
              </defs>
              <use
                 xlink:href="#DejaVuSans-56"
                 id="use296"
                 x="0"
                 y="0"
                 width="100%"
                 height="100%" />
              <use
                 x="63.623047"
                 xlink:href="#DejaVuSans-48"
                 id="use298"
                 y="0"
                 width="100%"
                 height="100%" />
            </g>
          </g>
        </g>
        <g
           id="ytick_6">
          <g
             id="line2d_10">
            <g
               id="g306">
              <use
                 style="stroke:#000000;stroke-width:0.8"
                 x="90"
                 xlink:href="#m6b13329e74"
                 y="67.371429"
                 id="use304"
                 width="100%"
                 height="100%" />
            </g>
          </g>
          <g
             id="text_10">
            <!-- 100 -->
            <g
               transform="matrix(0.22,0,0,-0.22,41.0075,75.72971)"
               id="g318">
              <defs
                 id="defs310">
                <path
                   d="m 12.40625,8.296875 h 16.109375 v 55.625 L 10.984375,60.40625 v 8.984375 l 17.4375,3.515625 H 38.28125 V 8.296875 H 54.390625 V 0 H 12.40625 Z"
                   id="DejaVuSans-49" />
              </defs>
              <use
                 xlink:href="#DejaVuSans-49"
                 id="use312"
                 x="0"
                 y="0"
                 width="100%"
                 height="100%" />
              <use
                 x="63.623047"
                 xlink:href="#DejaVuSans-48"
                 id="use314"
                 y="0"
                 width="100%"
                 height="100%" />
              <use
                 x="127.24609"
                 xlink:href="#DejaVuSans-48"
                 id="use316"
                 y="0"
                 width="100%"
                 height="100%" />
            </g>
          </g>
        </g>
        <g
           id="text_11">
          <!-- Winner -->
          <g
             transform="matrix(0,-0.22,-0.22,0,32.432187,253.83766)"
             id="g339">
            <defs
               id="defs325">
              <path
                 d="m 3.328125,72.90625 h 9.953125 l 15.328125,-61.625 15.28125,61.625 h 11.09375 l 15.328125,-61.625 15.28125,61.625 H 95.609375 L 77.296875,0 H 64.890625 L 49.515625,63.28125 33.984375,0 h -12.40625 z"
                 id="DejaVuSans-87" />
              <path
                 d="M 9.421875,54.6875 H 18.40625 V 0 H 9.421875 Z m 0,21.296875 H 18.40625 V 64.59375 H 9.421875 Z"
                 id="DejaVuSans-105" />
              <path
                 d="m 56.203125,29.59375 v -4.390625 h -41.3125 q 0.59375,-9.28125 5.59375,-14.140625 5,-4.859375 13.9375,-4.859375 5.171875,0 10.03125,1.265625 4.859375,1.265625 9.65625,3.8125 v -8.5 q -4.84375,-2.046875 -9.921875,-3.125 -5.078125,-1.078125 -10.296875,-1.078125 -13.09375,0 -20.734375,7.609375 -7.640625,7.625 -7.640625,20.625 0,13.421875 7.25,21.296875 Q 20.015625,56 32.328125,56 q 11.03125,0 17.453125,-7.109375 6.421875,-7.09375 6.421875,-19.296875 z m -8.984375,2.640625 q -0.09375,7.359375 -4.125,11.75 -4.03125,4.40625 -10.671875,4.40625 -7.515625,0 -12.03125,-4.25 -4.515625,-4.25 -5.203125,-11.96875 z"
                 id="DejaVuSans-101" />
            </defs>
            <use
               xlink:href="#DejaVuSans-87"
               id="use327"
               x="0"
               y="0"
               width="100%"
               height="100%" />
            <use
               x="96.626953"
               xlink:href="#DejaVuSans-105"
               id="use329"
               y="0"
               width="100%"
               height="100%" />
            <use
               x="124.41016"
               xlink:href="#DejaVuSans-110"
               id="use331"
               y="0"
               width="100%"
               height="100%" />
            <use
               x="187.78906"
               xlink:href="#DejaVuSans-110"
               id="use333"
               y="0"
               width="100%"
               height="100%" />
            <use
               x="251.16797"
               xlink:href="#DejaVuSans-101"
               id="use335"
               y="0"
               width="100%"
               height="100%" />
            <use
               x="312.69141"
               xlink:href="#DejaVuSans-114"
               id="use337"
               y="0"
               width="100%"
               height="100%" />
          </g>
        </g>
      </g>
      <g
         id="patch_15">
        <path
           d="M 90,378 V 51.84"
           style="fill:none;stroke:#000000;stroke-width:0.8;stroke-linecap:square;stroke-linejoin:miter"
           id="path343" />
      </g>
      <g
         id="patch_16">
        <path
           d="M 648,378 V 51.84"
           style="fill:none;stroke:#000000;stroke-width:0.8;stroke-linecap:square;stroke-linejoin:miter"
           id="path346" />
      </g>
      <g
         id="patch_17">
        <path
           d="M 90,378 H 648"
           style="fill:none;stroke:#000000;stroke-width:0.8;stroke-linecap:square;stroke-linejoin:miter"
           id="path349" />
      </g>
      <g
         id="patch_18">
        <path
           d="M 90,51.84 H 648"
           style="fill:none;stroke:#000000;stroke-width:0.8;stroke-linecap:square;stroke-linejoin:miter"
           id="path352" />
      </g>
      <g
         id="text_12">
        <!-- Outcomes -->
        <g
           transform="matrix(0.264,0,0,-0.264,301.878,45.84)"
           id="g376">
          <defs
             id="defs358">
            <path
               d="M 8.5,21.578125 V 54.6875 h 8.984375 V 21.921875 q 0,-7.765625 3.015625,-11.65625 3.03125,-3.875 9.09375,-3.875 7.265625,0 11.484375,4.640625 4.234375,4.640625 4.234375,12.65625 v 31 h 8.984375 V 0 H 45.3125 V 8.40625 Q 42.046875,3.421875 37.71875,1 33.40625,-1.421875 27.6875,-1.421875 18.265625,-1.421875 13.375,4.4375 8.5,10.296875 8.5,21.578125 Z M 31.109375,56 Z"
               id="DejaVuSans-117" />
            <path
               d="M 18.3125,70.21875 V 54.6875 h 18.5 v -6.984375 h -18.5 v -29.6875 q 0,-6.6875 1.828125,-8.59375 1.828125,-1.90625 7.453125,-1.90625 H 36.8125 V 0 H 27.59375 Q 17.1875,0 13.234375,3.875 9.28125,7.765625 9.28125,18.015625 v 29.6875 H 2.6875 V 54.6875 h 6.59375 v 15.53125 z"
               id="DejaVuSans-116" />
            <path
               d="M 48.78125,52.59375 V 44.1875 q -3.8125,2.109375 -7.640625,3.15625 -3.828125,1.046875 -7.734375,1.046875 -8.75,0 -13.59375,-5.546875 -4.828125,-5.53125 -4.828125,-15.546875 0,-10.015625 4.828125,-15.5625 4.84375,-5.53125 13.59375,-5.53125 3.90625,0 7.734375,1.046875 3.828125,1.046875 7.640625,3.15625 v -8.3125 q -3.765625,-1.75 -7.796875,-2.625 -4.015625,-0.890625 -8.5625,-0.890625 -12.359375,0 -19.640625,7.765625 -7.265625,7.765625 -7.265625,20.953125 0,13.375 7.34375,21.03125 Q 20.21875,56 33.015625,56 q 4.140625,0 8.09375,-0.859375 3.953125,-0.84375 7.671875,-2.546875 z"
               id="DejaVuSans-99" />
          </defs>
          <use
             xlink:href="#DejaVuSans-79"
             id="use360"
             x="0"
             y="0"
             width="100%"
             height="100%" />
          <use
             x="78.710938"
             xlink:href="#DejaVuSans-117"
             id="use362"
             y="0"
             width="100%"
             height="100%" />
          <use
             x="142.08984"
             xlink:href="#DejaVuSans-116"
             id="use364"
             y="0"
             width="100%"
             height="100%" />
          <use
             x="181.29883"
             xlink:href="#DejaVuSans-99"
             id="use366"
             y="0"
             width="100%"
             height="100%" />
          <use
             x="236.2793"
             xlink:href="#DejaVuSans-111"
             id="use368"
             y="0"
             width="100%"
             height="100%" />
          <use
             x="297.46094"
             xlink:href="#DejaVuSans-109"
             id="use370"
             y="0"
             width="100%"
             height="100%" />
          <use
             x="394.87305"
             xlink:href="#DejaVuSans-101"
             id="use372"
             y="0"
             width="100%"
             height="100%" />
          <use
             x="456.39648"
             xlink:href="#DejaVuSans-115"
             id="use374"
             y="0"
             width="100%"
             height="100%" />
        </g>
      </g>
      <g
         id="legend_1">
        <g
           id="patch_19">
          <path
             d="m 668.98,163.05402 h 124.88437 q 4.4,0 4.4,-4.4 V 63.9784 q 0,-4.4 -4.4,-4.4 H 668.98 q -4.4,0 -4.4,4.4 v 94.67562 q 0,4.4 4.4,4.4 z"
             style="opacity:0.8;fill:#ffffff;stroke:#cccccc;stroke-linejoin:miter"
             id="path379" />
        </g>
        <g
           id="patch_20">
          <path
             d="m 673.38,85.094963 h 44 v -15.4 h -44 z"
             style="stroke:#000000;stroke-linejoin:miter"
             id="path382" />
        </g>
        <g
           id="text_13">
          <!-- O -->
          <g
             transform="matrix(0.22,0,0,-0.22,734.98,85.094963)"
             id="g387">
            <use
               xlink:href="#DejaVuSans-79"
               id="use385"
               x="0"
               y="0"
               width="100%"
               height="100%" />
          </g>
        </g>
        <g
           id="patch_21">
          <path
             d="m 673.38,117.38684 h 44 v -15.4 h -44 z"
             style="fill:#ffffff;stroke:#000000;stroke-linejoin:miter"
             id="path390" />
        </g>
        <g
           id="text_14">
          <!-- draw -->
          <g
             transform="matrix(0.22,0,0,-0.22,734.98,117.38684)"
             id="g404">
            <defs
               id="defs394">
              <path
                 d="M 4.203125,54.6875 H 13.1875 L 24.421875,12.015625 35.59375,54.6875 H 46.1875 L 57.421875,12.015625 68.609375,54.6875 H 77.59375 L 63.28125,0 H 52.6875 L 40.921875,44.828125 29.109375,0 H 18.5 Z"
                 id="DejaVuSans-119" />
            </defs>
            <use
               xlink:href="#DejaVuSans-100"
               id="use396"
               x="0"
               y="0"
               width="100%"
               height="100%" />
            <use
               x="63.476562"
               xlink:href="#DejaVuSans-114"
               id="use398"
               y="0"
               width="100%"
               height="100%" />
            <use
               x="104.58984"
               xlink:href="#DejaVuSans-97"
               id="use400"
               y="0"
               width="100%"
               height="100%" />
            <use
               x="165.86914"
               xlink:href="#DejaVuSans-119"
               id="use402"
               y="0"
               width="100%"
               height="100%" />
          </g>
        </g>
        <g
           id="patch_22">
          <path
             d="m 673.38,149.67871 h 44 v -15.4 h -44 z"
             style="fill:#ff0000;stroke:#000000;stroke-linejoin:miter"
             id="path407" />
        </g>
        <g
           id="text_15">
          <!-- X -->
          <g
             transform="matrix(0.22,0,0,-0.22,734.98,149.67871)"
             id="g412">
            <use
               xlink:href="#DejaVuSans-88"
               id="use410"
               x="0"
               y="0"
               width="100%"
               height="100%" />
          </g>
        </g>
      </g>
    </g>
  </g>
  <defs
     id="defs421">
    <clipPath
       id="p2278f456a0">
      <rect
         height="326.16"
         width="558"
         x="90"
         y="51.84"
         id="rect418" />
    </clipPath>
  </defs>
</svg>
